<svg width="906" height="60" viewBox="0 0 906 60" fill="none" xmlns="http://www.w3.org/2000/svg">
<path d="M462.424 36.6792C455.505 36.6792 446.857 37.9623 436.478 35.3962C426.1 32.8302 412.867 20 388.047 20C359.246 20 356.912 36.6792 317.129 36.6792C277.346 36.6792 277.394 20.0002 246.212 20C213.952 19.9998 204.699 36.6792 175.294 36.6792C145.89 36.6793 134.386 20 104.377 20C78.4315 20 61.1345 36.6793 43.8376 36.6793L30 36.6793" stroke="#1E82D9" stroke-width="20" stroke-linecap="round"/>
<path d="M878 36.6792C871.081 36.6792 862.433 37.9623 852.055 35.3962C841.676 32.8302 828.443 20 803.623 20C774.823 20 772.489 36.6792 732.706 36.6792C692.923 36.6792 692.971 20.0002 661.788 20C629.528 19.9998 620.275 36.6792 590.871 36.6792C561.466 36.6793 549.962 20 519.953 20C494.008 20 476.711 36.6793 459.414 36.6793L445.576 36.6793" stroke="#1E82D9" stroke-width="20" stroke-linecap="round"/>
</svg>
